/* XPM */
static char *_081af51a1704514fefcf3a96d5cdfa9[] = {
/* columns rows colors chars-per-pixel */
"16 16 39 1 ",
"  c #85850000ADAD",
". c #89890000B1B1",
"X c #8A8A0000B2B2",
"o c #9A9A0000C3C3",
"O c #9C9C0000C6C6",
"+ c #9E9E0707D0D0",
"@ c #A2A20505D0D0",
"# c #AEAE0101DADA",
"$ c #AFAF0000DBDB",
"% c #B1B10707DFDF",
"& c #B2B20E0EEDED",
"* c #AFAF1111EAEA",
"= c #BABA0E0EFAFA",
"- c #BFBF0E0EFFFF",
"; c #AEAE1919FFFF",
": c #AAAA1D1DFFFF",
"> c #A8A81F1FFFFF",
", c #AEAE1F1FFFFF",
"< c #B5B51414FEFE",
"1 c #B4B41515FEFE",
"2 c #BABA1111FFFF",
"3 c #BCBC1010FFFF",
"4 c #B0B01919FBFB",
"5 c #9F9F2525FFFF",
"6 c #9C9C2727FFFF",
"7 c #97972B2BFFFF",
"8 c #9A9A2929FFFF",
"9 c #A3A32222FFFF",
"0 c #A6A62121FFFF",
"q c #A1A12424FFFF",
"w c #A2A22525FFFF",
"e c #C2C20A0AFFFF",
"r c #C5C50909FFFF",
"t c #C1C10C0CFFFF",
"y c #C0C00D0DFFFF",
"u c #CACA1818FFFF",
"i c #CDCD1818FFFF",
"p c #D4D42D2DFFFF",
"a c None",
/* pixels */
"aaaaaaaaaaaaaaaa",
"aaaaaaaaaaaaaaaa",
"aaaaaaaaaaaaaaaa",
"aaaaaapaaaaaaaaa",
"aaaaaiuaaaaaaaaa",
"aaaaaretaaaaaaaa",
"aaaaat-32aaaaaaa",
"aaaaa=&*11aaaaaa",
"aaaa+@#%4;aaaaaa",
"aaaaXO#a,::aaaaa",
"aaaaXoaaa00qaaaa",
"aaaa aaaaw588aaa",
"aaaaaaaaaa687aaa",
"aaaaaaaaaaaaaaaa",
"aaaaaaaaaaaaaaaa",
"aaaaaaaaaaaaaaaa"
};
