/* XPM */
static char *fd8750d34c034ab3a014b45a9c64ad1e[] = {
/* columns rows colors chars-per-pixel */
"48 48 217 2 ",
"   c #740099",
".  c #7900A0",
"X  c #7A00A0",
"o  c #7D00A1",
"O  c #8A0FA1",
"+  c #8000A8",
"@  c #8100A8",
"#  c #8100A9",
"$  c #8700AF",
"%  c #8800AE",
"&  c #910CAE",
"*  c #8800B0",
"=  c #8F04B4",
"-  c #8F00B8",
";  c #9701B1",
":  c #9200B6",
">  c #9805B4",
",  c #960EB7",
"<  c #9600BF",
"1  c #9806BA",
"2  c #8E15BA",
"3  c #9715BE",
"4  c #9C00C6",
"5  c #9A0BC1",
"6  c #9D00C8",
"7  c #9D07CB",
"8  c #9C1DC7",
"9  c #A000C4",
"0  c #A200CC",
"q  c #A300CD",
"w  c #A20FCF",
"e  c #AA00D5",
"r  c #A40DD7",
"t  c #B000DD",
"y  c #B100DD",
"u  c #AA1EDB",
"i  c #9303FF",
"p  c #9B00FF",
"a  c #9802FF",
"s  c #9E00FF",
"d  c #9718FF",
"f  c #9A1BFF",
"g  c #9F1AFF",
"h  c #B700E1",
"j  c #B600E3",
"k  c #B800E5",
"l  c #B900E6",
"z  c #BE00EB",
"x  c #BF00EC",
"c  c #AB19E0",
"v  c #B213EB",
"b  c #A600FF",
"n  c #A80CFF",
"m  c #BF07FF",
"M  c #BE09FF",
"N  c #BB0FFF",
"B  c #BD0CFF",
"V  c #BD0DFF",
"C  c #BF0CFF",
"Z  c #BE0DFF",
"A  c #BF0DFF",
"S  c #BC0EFF",
"D  c #BD0EFF",
"F  c #BC0FFF",
"G  c #BD0FFF",
"H  c #BE0EFF",
"J  c #A410FF",
"K  c #A315FF",
"L  c #A216FF",
"P  c #A01AFF",
"I  c #A71FFF",
"U  c #AF19FF",
"Y  c #AC1BFF",
"T  c #AD1BFF",
"R  c #AE1AFF",
"E  c #AF1AFF",
"W  c #A91DFF",
"Q  c #AB1CFF",
"!  c #AA1DFF",
"~  c #A81EFF",
"^  c #A91EFF",
"/  c #AB1EFF",
"(  c #AC1CFF",
")  c #AF1DFF",
"_  c #AC1EFF",
"`  c #B013F6",
"'  c #B619F4",
"]  c #B012FF",
"[  c #B711FF",
"{  c #B513FF",
"}  c #B713FF",
"|  c #B316FF",
" . c #B217FF",
".. c #B514FD",
"X. c #B514FF",
"o. c #B416FF",
"O. c #B417FF",
"+. c #B616FF",
"@. c #B915FA",
"#. c #B911FE",
"$. c #B911FF",
"%. c #BA10FF",
"&. c #BB10FF",
"*. c #BA11FF",
"=. c #B912FF",
"-. c #B813FF",
";. c #BC10FF",
":. c #BB15FF",
">. c #BF14FF",
",. c #B219FB",
"<. c #B018FF",
"1. c #B118FF",
"2. c #B119FF",
"3. c #B01AFF",
"4. c #B418FF",
"5. c #9F23FF",
"6. c #9B27FF",
"7. c #9F25FF",
"8. c #9D26FF",
"9. c #9C27FF",
"0. c #9D27FF",
"q. c #9E26FF",
"w. c #9F26FF",
"e. c #972BFF",
"r. c #952CFF",
"t. c #942DFF",
"y. c #952DFF",
"u. c #962CFF",
"i. c #972CFF",
"p. c #9929FF",
"a. c #9B28FF",
"s. c #9A29FF",
"d. c #9B29FF",
"f. c #982AFF",
"g. c #992AFF",
"h. c #982BFF",
"j. c #9C28FF",
"k. c #A322FF",
"l. c #A223FF",
"z. c #A421FF",
"x. c #A521FF",
"c. c #A620FF",
"v. c #A422FF",
"b. c #A523FF",
"n. c #A024FF",
"m. c #A124FF",
"M. c #A025FF",
"N. c #A126FF",
"B. c #A820FF",
"V. c #B822F7",
"C. c #A831FF",
"Z. c #C700F6",
"A. c #C204F4",
"S. c #C400F9",
"D. c #C000FF",
"F. c #C200FF",
"G. c #C302FF",
"H. c #C501FF",
"J. c #C600FF",
"K. c #C402FF",
"L. c #C104FF",
"P. c #C006FF",
"I. c #C107FF",
"U. c #C207FF",
"Y. c #C605FF",
"T. c #C607FF",
"R. c #CD01FB",
"E. c #C308FF",
"W. c #C309FF",
"Q. c #C10BFF",
"!. c #C30AFF",
"~. c #C20BFF",
"^. c #C509FF",
"/. c #C40AFF",
"(. c #C00CFF",
"). c #C10CFF",
"_. c #C00DFF",
"`. c #C20CFF",
"'. c #C20EFF",
"]. c #C80AFF",
"[. c #D700FF",
"{. c #C210FF",
"}. c #C211FF",
"|. c #C012FF",
" X c #C312FF",
".X c #C510FF",
"XX c #C413FF",
"oX c #C514FE",
"OX c #C414FF",
"+X c #C912FE",
"@X c #CE10FF",
"#X c #C817FF",
"$X c #CC1AFF",
"%X c #CA1DFF",
"&X c #CF1FFC",
"*X c #CE2CFF",
"=X c #D424FF",
"-X c #D42BFE",
";X c #D12CFF",
":X c #D12FFF",
">X c #DB29FC",
",X c #D230FF",
"<X c #D533FF",
"1X c #D830FC",
"2X c #D339FF",
"3X c #D53BFF",
"4X c #D53FFF",
"5X c #DF3FF9",
"6X c #DA3CFF",
"7X c #AE48FF",
"8X c #B958FE",
"9X c #C05FFD",
"0X c #C95CFC",
"qX c #DA50FF",
"wX c #DC52FF",
"eX c #C763FC",
"rX c None",
/* pixels */
"rXrXrXrXrXrXrXrXrXrXrXrXrXrXrXrXrXrXrXrXrXrXrXrXrXrXrXrXrXrXrXrXrXrXrXrXrXrXrXrXrXrXrXrXrXrXrXrX",
"rXrXrXrXrXrXrXrXrXrXrXrXrXrXrXrXrXrXrXrXrXrXrXrXrXrXrXrXrXrXrXrXrXrXrXrXrXrXrXrXrXrXrXrXrXrXrXrX",
"rXrXrXrXrXrXrXrXrXrXrXrXrXrXrXrXrXrXrXrXrXrXrXrXrXrXrXrXrXrXrXrXrXrXrXrXrXrXrXrXrXrXrXrXrXrXrXrX",
"rXrXrXrXrXrXrXrXrXrXrXrXrXrXrXrXrXrXrXrXrXrXrXrXrXrXrXrXrXrXrXrXrXrXrXrXrXrXrXrXrXrXrXrXrXrXrXrX",
"rXrXrXrXrXrXrXrXrXrXrXrXrXrXrXrXrXrXrXrXrXrXrXrXrXrXrXrXrXrXrXrXrXrXrXrXrXrXrXrXrXrXrXrXrXrXrXrX",
"rXrXrXrXrXrXrXrXrXrXrXrXrXrXrXrXrXrXrXrXrXrXrXrXrXrXrXrXrXrXrXrXrXrXrXrXrXrXrXrXrXrXrXrXrXrXrXrX",
"rXrXrXrXrXrXrXrXrXrXrXrXrXrXrXrXrXrXrXrXrXrXrXrXrXrXrXrXrXrXrXrXrXrXrXrXrXrXrXrXrXrXrXrXrXrXrXrX",
"rXrXrXrXrXrXrXrXrXrXrXrXrXrXrXrXrXrXrXrXrXrXrXrXrXrXrXrXrXrXrXrXrXrXrXrXrXrXrXrXrXrXrXrXrXrXrXrX",
"rXrXrXrXrXrXrXrXrXrXrXrXrXrXrXrXrX>XrXrXrXrXrXrXrXrXrXrXrXrXrXrXrXrXrXrXrXrXrXrXrXrXrXrXrXrXrXrX",
"rXrXrXrXrXrXrXrXrXrXrXrXrXrXrXrXrX6X=XrXrXrXrXrXrXrXrXrXrXrXrXrXrXrXrXrXrXrXrXrXrXrXrXrXrXrXrXrX",
"rXrXrXrXrXrXrXrXrXrXrXrXrXrXrXrXrX<XwX@XrXrXrXrXrXrXrXrXrXrXrXrXrXrXrXrXrXrXrXrXrXrXrXrXrXrXrXrX",
"rXrXrXrXrXrXrXrXrXrXrXrXrXrXrXrX5X:XqX3XrXrXrXrXrXrXrXrXrXrXrXrXrXrXrXrXrXrXrXrXrXrXrXrXrXrXrXrX",
"rXrXrXrXrXrXrXrXrXrXrXrXrXrXrXrX1X2X:X4X:XrXrXrXrXrXrXrXrXrXrXrXrXrXrXrXrXrXrXrXrXrXrXrXrXrXrXrX",
"rXrXrXrXrXrXrXrXrXrXrXrXrXrXrXrX-X$XK.].*X%XrXrXrXrXrXrXrXrXrXrXrXrXrXrXrXrXrXrXrXrXrXrXrXrXrXrX",
"rXrXrXrXrXrXrXrXrXrXrXrXrXrXrXrXY.Y.Y.K.K.#X.XrXrXrXrXrXrXrXrXrXrXrXrXrXrXrXrXrXrXrXrXrXrXrXrXrX",
"rXrXrXrXrXrXrXrXrXrXrXrXrXrXrXrXK.Y.W.W.W.U.).).rXrXrXrXrXrXrXrXrXrXrXrXrXrXrXrXrXrXrXrXrXrXrXrX",
"rXrXrXrXrXrXrXrXrXrXrXrXrXrXrX&XF.W.W.W.!.!.A A rXrXrXrXrXrXrXrXrXrXrXrXrXrXrXrXrXrXrXrXrXrXrXrX",
"rXrXrXrXrXrXrXrXrXrXrXrXrXrXrX+XF.!.`.).A A A A A rXrXrXrXrXrXrXrXrXrXrXrXrXrXrXrXrXrXrXrXrXrXrX",
"rXrXrXrXrXrXrXrXrXrXrXrXrXrXrX!.U.).).).A N A A *.*.rXrXrXrXrXrXrXrXrXrXrXrXrXrXrXrXrXrXrXrXrXrX",
"rXrXrXrXrXrXrXrXrXrXrXrXrXrXrXm !.A ).A A A *.*.*.*.*.rXrXC.rXrXrXrXrXrXrXrXrXrXrXrXrXrXrXrXrXrX",
"rXrXrXrXrXrXrXrXrXrXrXrXrXrXoX!.A A A A *.*.N *.*.*.X.A.R.rXrXrXrXrXrXrXrXrXrXrXrXrXrXrXrXrXrXrX",
"rXrXrXrXrXrXrXrXrXrXrXrXrXrX}.M A A *.*.A }.>.[ X.X.X.` rXrXrXrXrXrXrXrXrXrXrXrXrXrXrXrXrXrXrXrX",
"rXrXrXrXrXrXrXrXrXrXrXrXrXrXA A *.A ).OX' 8 u >.X.X.X.O.E rXrXrXrXrXrXrXrXrXrXrXrXrXrXrXrXrXrXrX",
"rXrXrXrXrXrXrXrXrXrXrXrXrXrXN ).OX@.c 3 , > O V.[ X.O.O.<.<.rXrXrXrXrXrXrXrXrXrXrXrXrXrXrXrXrXrX",
"rXrXrXrXrXrXrXrXrXrXrXrXrXrX>.v w 5 1 4 k [.; 2 :.4.O.E <.E rXrXrXrXrXrXrXrXrXrXrXrXrXrXrXrXrXrX",
"rXrXrXrXrXrXrXrXrXrXrXrXrXr 7 * : q y h k Z.h & ,.] E E E E E rXrXrXrXrXrXrXrXrXrXrXrXrXrXrXrXrX",
"rXrXrXrXrXrXrXrXrXrXrXrXrXo * 4 4 q e y k x S.rXrXb <.E E Y ! ! rXrXrXrXrXrXrXrXrXrXrXrXrXrXrXrX",
"rXrXrXrXrXrXrXrXrXrXrXrXrX* - 4 4 q e y k x rXrXrX) n ) ! ! ! ! ! rXrXrXrXrXrXrXrXrXrXrXrXrXrXrX",
"rXrXrXrXrXrXrXrXrXrXrXrXo $ - 4 4 q e y k rXrXrXrX0Xs ) ! ! ! I B.rXrXrXrXrXrXrXrXrXrXrXrXrXrXrX",
"rXrXrXrXrXrXrXrXrXrXrXrXo $ - - 4 q e y rXrXrXrXrXrX! J ! I I I B.x.rXrXrXrXrXrXrXrXrXrXrXrXrXrX",
"rXrXrXrXrXrXrXrXrXrXrXrX$ $ = 4 4 q e rXrXrXrXrXrXrXeXp x.I x.x.z.n.n.rXrXrXrXrXrXrXrXrXrXrXrXrX",
"rXrXrXrXrXrXrXrXrXrXrXrXo $ = 4 4 rXrXrXrXrXrXrXrXrXrXK K x.z.z.z.x.n.n.rXrXrXrXrXrXrXrXrXrXrXrX",
"rXrXrXrXrXrXrXrXrXrXrXrX@ * - < rXrXrXrXrXrXrXrXrXrXrX9Xp n.x.b.n.n.n.n.rXrXrXrXrXrXrXrXrXrXrXrX",
"rXrXrXrXrXrXrXrXrXrXrX. @ * - rXrXrXrXrXrXrXrXrXrXrXrXrXP P n.n.n.n.0.0.0.rXrXrXrXrXrXrXrXrXrXrX",
"rXrXrXrXrXrXrXrXrXrXrX. @ * rXrXrXrXrXrXrXrXrXrXrXrXrXrX8Xi n.n.n.0.0.0.d.d.rXrXrXrXrXrXrXrXrXrX",
"rXrXrXrXrXrXrXrXrXrXrX. @ rXrXrXrXrXrXrXrXrXrXrXrXrXrXrXrXn.f 9.0.0.d.0.d.d.i.rXrXrXrXrXrXrXrXrX",
"rXrXrXrXrXrXrXrXrXrX  . rXrXrXrXrXrXrXrXrXrXrXrXrXrXrXrXrX7Xd 9.0.d.d.d.u.u.u.u.rXrXrXrXrXrXrXrX",
"rXrXrXrXrXrXrXrXrXrXrXrXrXrXrXrXrXrXrXrXrXrXrXrXrXrXrXrXrXrX9.9.d.d.d.i.e.u.u.u.rXrXrXrXrXrXrXrX",
"rXrXrXrXrXrXrXrXrXrXrXrXrXrXrXrXrXrXrXrXrXrXrXrXrXrXrXrXrXrXrXrXrXrXrXrXrXrXrXrXrXrXrXrXrXrXrXrX",
"rXrXrXrXrXrXrXrXrXrXrXrXrXrXrXrXrXrXrXrXrXrXrXrXrXrXrXrXrXrXrXrXrXrXrXrXrXrXrXrXrXrXrXrXrXrXrXrX",
"rXrXrXrXrXrXrXrXrXrXrXrXrXrXrXrXrXrXrXrXrXrXrXrXrXrXrXrXrXrXrXrXrXrXrXrXrXrXrXrXrXrXrXrXrXrXrXrX",
"rXrXrXrXrXrXrXrXrXrXrXrXrXrXrXrXrXrXrXrXrXrXrXrXrXrXrXrXrXrXrXrXrXrXrXrXrXrXrXrXrXrXrXrXrXrXrXrX",
"rXrXrXrXrXrXrXrXrXrXrXrXrXrXrXrXrXrXrXrXrXrXrXrXrXrXrXrXrXrXrXrXrXrXrXrXrXrXrXrXrXrXrXrXrXrXrXrX",
"rXrXrXrXrXrXrXrXrXrXrXrXrXrXrXrXrXrXrXrXrXrXrXrXrXrXrXrXrXrXrXrXrXrXrXrXrXrXrXrXrXrXrXrXrXrXrXrX",
"rXrXrXrXrXrXrXrXrXrXrXrXrXrXrXrXrXrXrXrXrXrXrXrXrXrXrXrXrXrXrXrXrXrXrXrXrXrXrXrXrXrXrXrXrXrXrXrX",
"rXrXrXrXrXrXrXrXrXrXrXrXrXrXrXrXrXrXrXrXrXrXrXrXrXrXrXrXrXrXrXrXrXrXrXrXrXrXrXrXrXrXrXrXrXrXrXrX",
"rXrXrXrXrXrXrXrXrXrXrXrXrXrXrXrXrXrXrXrXrXrXrXrXrXrXrXrXrXrXrXrXrXrXrXrXrXrXrXrXrXrXrXrXrXrXrXrX",
"rXrXrXrXrXrXrXrXrXrXrXrXrXrXrXrXrXrXrXrXrXrXrXrXrXrXrXrXrXrXrXrXrXrXrXrXrXrXrXrXrXrXrXrXrXrXrXrX"
};
