/* XPM */
static char *_f909763b7a140b1b028beac166fd95e[] = {
/* columns rows colors chars-per-pixel */
"32 32 122 2 ",
"   c #7A7A0000A1A1",
".  c #7C7C0000A2A2",
"X  c #81810000A9A9",
"o  c #83830000ABAB",
"O  c #84840000ACAC",
"+  c #85850000ADAD",
"@  c #8C8C0000B5B5",
"#  c #8D8D0000B5B5",
"$  c #8D8D0000B6B6",
"%  c #90900202B9B9",
"&  c #97970000C0C0",
"*  c #97970000C1C1",
"=  c #9F9F0C0CC5C5",
"-  c #A1A10000CBCB",
";  c #A1A10000CCCC",
":  c #A2A20000CCCC",
">  c #A0A00707CCCC",
",  c #A1A10F0FCDCD",
"<  c #A6A60202D0D0",
"1  c #ABAB0000D7D7",
"2  c #A6A60E0ED5D5",
"3  c #ACAC0000D8D8",
"4  c #A6A60B0BD8D8",
"5  c #B3B30000DFDF",
"6  c #B1B10808DBDB",
"7  c #B7B70000E1E1",
"8  c #B6B60000E2E2",
"9  c #B6B60000E3E3",
"0  c #B0B00E0EEBEB",
"q  c #ADAD1111E5E5",
"w  c #ABAB1616E4E4",
"e  c #BFBF0A0AF8F8",
"r  c #BBBB0F0FFFFF",
"t  c #BEBE0D0DFFFF",
"y  c #BFBF0D0DFFFF",
"u  c #BCBC0F0FFEFE",
"i  c #BDBD0E0EFFFF",
"p  c #BCBC0F0FFFFF",
"a  c #BDBD0F0FFFFF",
"s  c #BEBE0E0EFFFF",
"d  c #BEBE0F0FFFFF",
"f  c #A6A61F1FFFFF",
"g  c #A7A71F1FFFFF",
"h  c #AFAF1919FFFF",
"j  c #ACAC1B1BFFFF",
"k  c #ADAD1B1BFFFF",
"l  c #AEAE1A1AFFFF",
"z  c #A9A91D1DFFFF",
"x  c #AAAA1C1CFFFF",
"c  c #ABAB1C1CFFFF",
"v  c #AAAA1D1DFFFF",
"b  c #A8A81E1EFFFF",
"n  c #A8A81F1FFFFF",
"m  c #ACAC1F1FFFFF",
"M  c #B7B71111F6F6",
"N  c #B6B61414F5F5",
"B  c #B5B51212FBFB",
"V  c #B7B71313FCFC",
"C  c #B7B71313FFFF",
"Z  c #B1B11717FFFF",
"A  c #B3B31616FFFF",
"S  c #B2B21717FFFF",
"D  c #B5B51414FFFF",
"F  c #B5B51515FFFF",
"G  c #BABA1111FDFD",
"H  c #B9B91111FFFF",
"J  c #BABA1010FFFF",
"K  c #BBBB1010FFFF",
"L  c #B8B81212FEFE",
"P  c #B2B21818FCFC",
"I  c #B0B01818FFFF",
"U  c #B1B11818FFFF",
"Y  c #B1B11D1DFCFC",
"T  c #9F9F2525FFFF",
"R  c #9D9D2626FFFF",
"E  c #9C9C2727FFFF",
"W  c #9D9D2727FFFF",
"Q  c #9E9E2626FFFF",
"!  c #96962B2BFFFF",
"~  c #9B9B2828FFFF",
"^  c #9A9A2929FFFF",
"/  c #98982A2AFFFF",
"(  c #99992A2AFFFF",
")  c #98982B2BFFFF",
"_  c #9C9C2828FFFF",
"`  c #A3A32222FFFF",
"'  c #A2A22323FFFF",
"]  c #A5A52020FFFF",
"[  c #A4A42121FFFF",
"{  c #A5A52121FFFF",
"}  c #A6A62020FFFF",
"|  c #A6A62222FFFF",
" . c #A0A02424FFFF",
".. c #A1A12424FFFF",
"X. c #A0A02525FFFF",
"o. c #C0C00000EDED",
"O. c #C6C60707FFFF",
"+. c #C3C30909FFFF",
"@. c #C1C10B0BFFFF",
"#. c #C2C20A0AFFFF",
"$. c #C3C30A0AFFFF",
"%. c #C2C20B0BFFFF",
"&. c #C3C30B0BFFFF",
"*. c #C5C50808FFFF",
"=. c #C4C40909FFFF",
"-. c #C7C70909FFFF",
";. c #C5C50A0AFFFF",
":. c #C0C00C0CFFFF",
">. c #C0C00E0EFFFF",
",. c #C6C60E0EFFFF",
"<. c #C9C90C0CFFFF",
"1. c #CBCB0F0FFEFE",
"2. c #C6C61212FFFF",
"3. c #CFCF1F1FFFFF",
"4. c #CECE2424FFFF",
"5. c #CFCF2525FFFF",
"6. c #D1D12A2AFFFF",
"7. c #D5D52C2CFFFF",
"8. c #D7D73131FFFF",
"9. c #D6D63434FFFF",
"0. c #D6D63A3AFFFF",
"q. c None",
/* pixels */
"q.q.q.q.q.q.q.q.q.q.q.q.q.q.q.q.q.q.q.q.q.q.q.q.q.q.q.q.q.q.q.q.",
"q.q.q.q.q.q.q.q.q.q.q.q.q.q.q.q.q.q.q.q.q.q.q.q.q.q.q.q.q.q.q.q.",
"q.q.q.q.q.q.q.q.q.q.q.q.q.q.q.q.q.q.q.q.q.q.q.q.q.q.q.q.q.q.q.q.",
"q.q.q.q.q.q.q.q.q.q.q.q.q.q.q.q.q.q.q.q.q.q.q.q.q.q.q.q.q.q.q.q.",
"q.q.q.q.q.q.q.q.q.q.q.q.q.q.q.q.q.q.q.q.q.q.q.q.q.q.q.q.q.q.q.q.",
"q.q.q.q.q.q.q.q.q.q.q.q.q.q.q.q.q.q.q.q.q.q.q.q.q.q.q.q.q.q.q.q.",
"q.q.q.q.q.q.q.q.q.q.q.8.7.q.q.q.q.q.q.q.q.q.q.q.q.q.q.q.q.q.q.q.",
"q.q.q.q.q.q.q.q.q.q.q.9.0.3.q.q.q.q.q.q.q.q.q.q.q.q.q.q.q.q.q.q.",
"q.q.q.q.q.q.q.q.q.q.q.6.5.5.q.q.q.q.q.q.q.q.q.q.q.q.q.q.q.q.q.q.",
"q.q.q.q.q.q.q.q.q.q.<.<.*.,.2.q.q.q.q.q.q.q.q.q.q.q.q.q.q.q.q.q.",
"q.q.q.q.q.q.q.q.q.q.<.*.+.+.+.y q.q.q.q.q.q.q.q.q.q.q.q.q.q.q.q.",
"q.q.q.q.q.q.q.q.q.q.*.+.+.+.s s s q.q.q.q.q.q.q.q.q.q.q.q.q.q.q.",
"q.q.q.q.q.q.q.q.q.q.+.+.s s s r G q.q.q.q.q.q.q.q.q.q.q.q.q.q.q.",
"q.q.q.q.q.q.q.q.q.q.s s s s r G G L e q.q.q.q.q.q.q.q.q.q.q.q.q.",
"q.q.q.q.q.q.q.q.q.>.s s s G N V D L L q.q.q.q.q.q.q.q.q.q.q.q.q.",
"q.q.q.q.q.q.q.q.q.d d M q 2 = w D S S I q.q.q.q.q.q.q.q.q.q.q.q.",
"q.q.q.q.q.q.q.q.q.0 4 > < 5 7 , I I I I q.q.q.q.q.q.q.q.q.q.q.q.",
"q.q.q.q.q.q.q.q.q.% & : 3 9 o.6 Y I l k v q.q.q.q.q.q.q.q.q.q.q.",
"q.q.q.q.q.q.q.q.+ # * : 3 9 q.q.q.k k v v v q.q.q.q.q.q.q.q.q.q.",
"q.q.q.q.q.q.q.q.+ # * : 1 q.q.q.q.m v v f { { q.q.q.q.q.q.q.q.q.",
"q.q.q.q.q.q.q.q.o # & : q.q.q.q.q.q.m { f ` ` q.q.q.q.q.q.q.q.q.",
"q.q.q.q.q.q.q.q.o # & q.q.q.q.q.q.q.{ { ` ` T T q.q.q.q.q.q.q.q.",
"q.q.q.q.q.q.q.  o # q.q.q.q.q.q.q.q.q.X.X.T T E _ q.q.q.q.q.q.q.",
"q.q.q.q.q.q.q.  o q.q.q.q.q.q.q.q.q.q.X.T T ~ ~ ~ ~ q.q.q.q.q.q.",
"q.q.q.q.q.q.q.q.q.q.q.q.q.q.q.q.q.q.q.q._ ~ ~ ) ! ! q.q.q.q.q.q.",
"q.q.q.q.q.q.q.q.q.q.q.q.q.q.q.q.q.q.q.q.q.q.q.q.q.q.q.q.q.q.q.q.",
"q.q.q.q.q.q.q.q.q.q.q.q.q.q.q.q.q.q.q.q.q.q.q.q.q.q.q.q.q.q.q.q.",
"q.q.q.q.q.q.q.q.q.q.q.q.q.q.q.q.q.q.q.q.q.q.q.q.q.q.q.q.q.q.q.q.",
"q.q.q.q.q.q.q.q.q.q.q.q.q.q.q.q.q.q.q.q.q.q.q.q.q.q.q.q.q.q.q.q.",
"q.q.q.q.q.q.q.q.q.q.q.q.q.q.q.q.q.q.q.q.q.q.q.q.q.q.q.q.q.q.q.q.",
"q.q.q.q.q.q.q.q.q.q.q.q.q.q.q.q.q.q.q.q.q.q.q.q.q.q.q.q.q.q.q.q.",
"q.q.q.q.q.q.q.q.q.q.q.q.q.q.q.q.q.q.q.q.q.q.q.q.q.q.q.q.q.q.q.q."
};
